<svg width="28" height="28" viewBox="0 0 28 28" fill="none" xmlns="http://www.w3.org/2000/svg">
<path d="M3.41797 16.9941C3.41797 18.6289 4.25293 19.4375 5.85254 19.4375H11.2227L10.9854 21.0283H10.0537C9.61426 21.0283 9.25391 21.3975 9.25391 21.8369C9.25391 22.2676 9.61426 22.6367 10.0537 22.6367H18.0078C18.4561 22.6367 18.8164 22.2676 18.8164 21.8369C18.8164 21.3975 18.4561 21.0283 18.0078 21.0283H17.0059L16.7773 19.4375H22.1387C23.7383 19.4375 24.582 18.6289 24.582 16.9941V7.10645C24.582 5.48047 23.7383 4.67188 22.1387 4.67188H5.85254C4.25293 4.67188 3.41797 5.48047 3.41797 7.10645V16.9941ZM5.13184 16.8887V7.2207C5.13184 6.61426 5.38672 6.38574 5.9668 6.38574H22.0244C22.6045 6.38574 22.8682 6.61426 22.8682 7.2207V16.8887C22.8682 17.4863 22.6045 17.7236 22.0244 17.7236H5.9668C5.38672 17.7236 5.13184 17.4863 5.13184 16.8887Z" fill="#1C1C1E"/>
<path d="M17.5703 10.1162H10.4385C10.1133 10.1162 9.87598 9.87012 9.87598 9.54492C9.87598 9.2373 10.1133 9 10.4385 9H17.5703C17.8867 9 18.124 9.2373 18.124 9.54492C18.124 9.87012 17.8867 10.1162 17.5703 10.1162Z" fill="#1C1C1E"/>
<path d="M17.5703 12.709H10.4385C10.1133 12.709 9.87598 12.4717 9.87598 12.1641C9.87598 11.8477 10.1133 11.5928 10.4385 11.5928H17.5703C17.8867 11.5928 18.124 11.8477 18.124 12.1641C18.124 12.4717 17.8867 12.709 17.5703 12.709Z" fill="#1C1C1E"/>
<path d="M14.2041 15.3018H10.4385C10.1133 15.3018 9.87598 15.0645 9.87598 14.7568C9.87598 14.4404 10.1133 14.1943 10.4385 14.1943H14.2041C14.5205 14.1943 14.7578 14.4404 14.7578 14.7568C14.7578 15.0645 14.5205 15.3018 14.2041 15.3018Z" fill="#1C1C1E"/>
<path d="M20 14.6943L20 9.5625C20 9.2373 20.2461 9 20.5713 9C20.8789 9 21.1162 9.2373 21.1162 9.5625L21.1162 14.6943C21.1162 15.0107 20.8789 15.248 20.5713 15.248C20.2461 15.248 20 15.0107 20 14.6943Z" fill="#1C1C1E"/>
<path d="M7 14.6943L7 9.5625C7 9.2373 7.24609 9 7.57129 9C7.87891 9 8.11621 9.2373 8.11621 9.5625L8.11621 14.6943C8.11621 15.0107 7.87891 15.248 7.57129 15.248C7.24609 15.248 7 15.0107 7 14.6943Z" fill="#1C1C1E"/>
</svg>
