<svg width="20" height="20" viewBox="0 0 20 20" fill="none" xmlns="http://www.w3.org/2000/svg">
<path d="M2.44141 12.1387C2.44141 13.3063 3.03781 13.8839 4.18039 13.8839H8.01618L7.84668 15.0202H7.18122C6.86733 15.0202 6.60993 15.2839 6.60993 15.5978C6.60993 15.9054 6.86733 16.1691 7.18122 16.1691H12.8627C13.1829 16.1691 13.4403 15.9054 13.4403 15.5978C13.4403 15.2839 13.1829 15.0202 12.8627 15.0202H12.147L11.9838 13.8839H15.8133C16.9559 13.8839 17.5586 13.3063 17.5586 12.1387V5.07601C17.5586 3.9146 16.9559 3.33704 15.8133 3.33704H4.18039C3.03781 3.33704 2.44141 3.9146 2.44141 5.07601V12.1387ZM3.6656 12.0633V5.15763C3.6656 4.72445 3.84766 4.56123 4.262 4.56123H15.7317C16.1461 4.56123 16.3344 4.72445 16.3344 5.15763V12.0633C16.3344 12.4902 16.1461 12.6597 15.7317 12.6597H4.262C3.84766 12.6597 3.6656 12.4902 3.6656 12.0633Z" fill="#1C1C1E"/>
<path d="M13.2645 7.22585H6.74177C6.50949 7.22585 6.33998 7.05007 6.33998 6.81778C6.33998 6.59806 6.50949 6.42855 6.74177 6.42855H13.2645C13.4905 6.42855 13.66 6.59806 13.66 6.81778C13.66 7.05007 13.4905 7.22585 13.2645 7.22585Z" fill="#1C1C1E"/>
<path d="M13.2645 9.07783H6.74177C6.50949 9.07783 6.33998 8.90833 6.33998 8.6886C6.33998 8.46259 6.50949 8.28054 6.74177 8.28054H13.2645C13.4905 8.28054 13.66 8.46259 13.66 8.6886C13.66 8.90833 13.4905 9.07783 13.2645 9.07783Z" fill="#1C1C1E"/>
<path d="M10.8601 10.9298H6.74177C6.50949 10.9298 6.33998 10.7603 6.33998 10.5406C6.33998 10.3146 6.50949 10.1388 6.74177 10.1388H10.8601C11.0861 10.1388 11.2556 10.3146 11.2556 10.5406C11.2556 10.7603 11.0861 10.9298 10.8601 10.9298Z" fill="#1C1C1E"/>
</svg>
