<svg width="20" height="20" viewBox="0 0 20 20" fill="none" xmlns="http://www.w3.org/2000/svg">
<g clip-path="url(#clip0_592_34)">
<path fill-rule="evenodd" clip-rule="evenodd" d="M8.95394 2C9.7702 2 10.2238 2.13496 10.7744 2.71272L14.1625 6.27948C14.7261 6.8774 14.8428 7.30781 14.8428 8.24836V10.5339L14.7299 10.6467L14.7372 10.6541L13.5543 11.8538V8.44273H10.0815C9.14868 8.44273 8.6885 7.97261 8.6885 6.99848V3.34393H5.9421C5.31371 3.34393 5.0026 3.68671 5.0026 4.29807V14.2605C5.0026 14.8786 5.31392 15.2147 5.93583 15.2147H10.2425L8.91736 16.5586H5.82506C4.43881 16.5585 3.71303 15.7994 3.71301 14.3483V4.2176C3.71301 2.75979 4.43879 2.00004 5.82506 2H8.95394ZM9.81611 6.87098C9.81612 7.1464 9.93279 7.26705 10.2049 7.26705H13.3787L9.81611 3.51846V6.87098Z" fill="#1C1C1E"/>
<path d="M11.5582 12.4474C11.7914 12.4474 11.9668 12.6351 11.9668 12.8769C11.9668 13.112 11.7914 13.2939 11.5582 13.2939H6.8816C6.63543 13.2939 6.46045 13.112 6.46045 12.8769C6.4605 12.6351 6.63547 12.4474 6.8816 12.4474H11.5582Z" fill="#1C1C1E"/>
<path d="M11.5582 10.2036C11.7914 10.2036 11.9668 10.3845 11.9668 10.6196C11.9668 10.8614 11.7914 11.0501 11.5582 11.0501H6.8816C6.63543 11.0501 6.46045 10.8614 6.46045 10.6196C6.46051 10.3845 6.63547 10.2036 6.8816 10.2036H11.5582Z" fill="#1C1C1E"/>
<path d="M16.7075 12.0182L17.2461 11.4758C17.5129 11.2046 17.5228 10.9083 17.2807 10.6572L17.0879 10.4563C16.8458 10.2102 16.5444 10.2353 16.2825 10.5015L15.7439 11.0389L16.7075 12.0182ZM10.6541 18.1605L16.2331 12.4903L15.2744 11.521L9.69543 17.1812L9.21116 18.3665C9.1568 18.5171 9.30999 18.6829 9.45824 18.6276L10.6541 18.1605Z" fill="#1C1C1E"/>
</g>
<defs>
<clipPath id="clip0_592_34">
<rect width="20" height="20" fill="white"/>
</clipPath>
</defs>
</svg>
