<svg width="20" height="20" viewBox="0 0 20 20" fill="none" xmlns="http://www.w3.org/2000/svg">
<path d="M2 12.7684C2 14.6141 3.33997 16 5.25705 16H14.743C16.66 16 18 14.6141 18 12.7684C18 12.2127 17.8474 11.7118 17.6617 11.259L15.3798 5.72899C14.9154 4.59691 13.9934 4 12.7595 4H7.2471C6.00663 4 5.08458 4.59691 4.62687 5.72899L2.35821 11.2316C2.16584 11.6913 2 12.199 2 12.7684ZM4.39469 9.68782L5.8408 6.03774C6.06633 5.44768 6.57711 5.13894 7.26036 5.13894H12.7396C13.4295 5.13894 13.9403 5.44768 14.1658 6.03774L15.6119 9.68782C15.3466 9.59863 15.0547 9.54374 14.743 9.54374H5.25705C4.94527 9.54374 4.66003 9.59863 4.39469 9.68782ZM3.27363 12.7684C3.27363 11.6775 4.06302 10.8611 5.25705 10.8611H14.743C15.937 10.8611 16.7264 11.6775 16.7264 12.7684C16.7264 13.976 15.937 14.6758 14.743 14.6758H5.25705C4.06302 14.6758 3.27363 13.8662 3.27363 12.7684ZM13.8408 12.7684C13.8408 13.2693 14.2388 13.6672 14.7164 13.6604C15.1808 13.6535 15.5721 13.2693 15.5721 12.7684C15.5721 12.295 15.1741 11.8834 14.7164 11.8834C14.2388 11.8834 13.8408 12.295 13.8408 12.7684Z" fill="#1C1C1E"/>
</svg>
