<svg width="20" height="20" viewBox="0 0 20 20" fill="none" xmlns="http://www.w3.org/2000/svg">
<path d="M4.02351 16.8982H8.34704C8.603 17.5 9.20483 17.922 9.8966 17.922C10.5814 17.922 11.1833 17.5 11.4462 16.8982H15.7628C16.1363 16.8982 16.4407 16.5938 16.4407 16.2202C16.4407 15.8536 16.1363 15.5423 15.7628 15.5423H11.4323C11.2594 15.1618 10.955 14.8575 10.5745 14.6914V13.128H14.4207C16.2332 13.128 17.5475 11.869 17.5475 10.1327C17.5475 9.63464 17.4092 9.17115 17.2224 8.73534L15.0987 3.74772C14.649 2.70315 13.7705 2.14282 12.5737 2.14282H7.42008C6.23024 2.14282 5.34478 2.70315 4.89514 3.74772L2.77834 8.70767C2.59848 9.14348 2.44629 9.61388 2.44629 10.1327C2.44629 11.869 3.75372 13.128 5.57307 13.128H9.21867V14.6845C8.8382 14.8575 8.5269 15.1618 8.35396 15.5423H4.02351C3.64996 15.5423 3.34558 15.8536 3.34558 16.2202C3.34558 16.5938 3.64996 16.8982 4.02351 16.8982ZM4.91589 7.19271L6.18182 4.08668C6.38243 3.58861 6.81824 3.32574 7.44083 3.32574H12.5599C13.1825 3.32574 13.6183 3.58861 13.8189 4.08668L15.0779 7.19271C14.8704 7.1512 14.6283 7.13736 14.3516 7.13736H5.64224C5.36554 7.13736 5.12342 7.1512 4.91589 7.19271ZM3.79523 10.1327C3.79523 9.16424 4.52158 8.48631 5.57307 8.48631H14.4207C15.4722 8.48631 16.1986 9.16424 16.1986 10.1327C16.1986 11.1565 15.5276 11.7791 14.4207 11.7791H5.57307C4.52158 11.7791 3.79523 11.1012 3.79523 10.1327ZM13.5353 10.1327C13.5353 10.6031 13.9158 10.9836 14.3862 10.9767C14.8496 10.9767 15.2301 10.5962 15.2301 10.1327C15.2301 9.68306 14.8358 9.28875 14.3862 9.28875C13.9227 9.28875 13.5353 9.68306 13.5353 10.1327Z" fill="#1C1C1E"/>
</svg>
