<svg width="20" height="20" viewBox="0 0 20 20" fill="none" xmlns="http://www.w3.org/2000/svg">
<path d="M2.44141 12.1388C2.44141 13.3065 3.03781 13.884 4.18039 13.884H8.01618L7.84668 15.0203H7.18122C6.86733 15.0203 6.60993 15.284 6.60993 15.5979C6.60993 15.9055 6.86733 16.1692 7.18122 16.1692H12.8627C13.1829 16.1692 13.4403 15.9055 13.4403 15.5979C13.4403 15.284 13.1829 15.0203 12.8627 15.0203H12.147L11.9838 13.884H15.8133C16.9559 13.884 17.5586 13.3065 17.5586 12.1388V5.07614C17.5586 3.91473 16.9559 3.33716 15.8133 3.33716H4.18039C3.03781 3.33716 2.44141 3.91473 2.44141 5.07614V12.1388ZM3.6656 12.0634V5.15775C3.6656 4.72457 3.84766 4.56135 4.262 4.56135H15.7317C16.1461 4.56135 16.3344 4.72457 16.3344 5.15775V12.0634C16.3344 12.4903 16.1461 12.6598 15.7317 12.6598H4.262C3.84766 12.6598 3.6656 12.4903 3.6656 12.0634Z" fill="#1C1C1E"/>
</svg>
