<svg width="20" height="20" viewBox="0 0 20 20" fill="none" xmlns="http://www.w3.org/2000/svg">
<path fill-rule="evenodd" clip-rule="evenodd" d="M10 2C14.4124 2 17.997 5.58958 18 9.99902L17.9893 10.4102C17.7744 14.6323 14.2741 18 10 18C5.72869 18 2.22571 14.6324 2.01074 10.4102L2 9.99902C2 5.58888 5.59087 2 10 2ZM10 3.46191C8.36969 3.46191 6.87882 4.06041 5.72949 5.04492C5.53102 5.2239 5.56738 5.36719 5.56738 5.36719C5.56197 5.3864 5.56441 5.39758 5.56445 5.41406C5.56445 5.51468 5.62059 5.61034 5.70996 5.65234C5.93926 5.75583 6.18605 5.84205 6.40137 5.9707C6.72001 6.16351 7.0608 6.08263 7.39062 6.09375C7.42418 6.09374 7.47804 6.08039 7.50879 6.06641C7.68767 5.97701 7.84697 5.97399 7.99512 6.14453C8.04544 6.20312 8.13763 6.23072 8.21582 6.25586C8.39186 6.31176 8.54581 6.39591 8.66602 6.54395C8.68 6.56072 8.69989 6.57795 8.71387 6.59473C8.78371 6.66732 8.9004 6.73727 8.90625 6.81543C8.92022 6.96077 8.87075 7.11483 8.84277 7.26855C8.83999 7.27968 8.83369 7.29371 8.82812 7.30762C8.66877 7.65995 8.71336 7.84242 9.02637 8.08008C9.13263 8.15839 9.24792 8.22785 9.36816 8.27539C9.44924 8.30614 9.53625 8.31485 9.62012 8.32324C9.69261 8.32884 9.75419 8.33706 9.81836 8.37891C9.87428 8.41806 9.91926 8.47186 9.9668 8.5166C10.0674 8.61709 10.1962 8.68718 10.333 8.7207C10.5035 8.7626 10.674 8.7767 10.8389 8.82422C11.082 8.89409 11.3364 8.84324 11.5684 8.71191C11.6159 8.68675 11.6726 8.66686 11.7285 8.66406C11.9912 8.66128 12.2511 8.66769 12.5166 8.66211C12.6396 8.65932 12.7152 8.6981 12.7627 8.81836C12.799 8.91336 12.8607 8.99987 12.9277 9.07812C13.0228 9.19279 13.1489 9.25977 13.3027 9.25977C13.395 9.26255 13.4847 9.26003 13.5713 9.26562C13.7361 9.27965 13.8645 9.34138 13.9512 9.49219C14.0742 9.70755 14.2175 9.91719 14.3545 10.127C14.3741 10.1549 14.396 10.1804 14.4268 10.1943C14.4714 10.2167 14.5159 10.2365 14.5605 10.2588C14.703 10.3231 14.8153 10.4459 14.8545 10.5996C14.9384 10.9213 14.9521 11.2489 14.9521 11.5762C14.9521 11.6907 14.8068 11.6854 14.709 11.582C14.5916 11.4618 14.4745 11.3412 14.3516 11.2266C14.2035 11.0952 14.041 11.0057 13.8398 10.9609C13.4848 10.8771 13.1349 10.7957 12.7715 10.8711C12.6736 10.8935 12.573 10.9498 12.5059 11.0225C12.3465 11.1902 12.1284 11.1927 11.9941 11.0166C11.8599 10.8404 11.675 10.7652 11.4541 10.7764C11.2752 10.7848 11.1409 10.9327 11.1465 11.1396C11.1493 11.2178 11.1355 11.2933 11.0938 11.3604C11.0406 11.4386 10.9481 11.4978 10.8643 11.5342C10.8252 11.5481 10.7832 11.5566 10.7441 11.54C10.7051 11.5233 10.6767 11.4898 10.6377 11.4785C10.5818 11.4617 10.5114 11.4639 10.4639 11.5059C10.4163 11.5534 10.391 11.6122 10.3379 11.6514C10.2541 11.7072 10.1624 11.7443 10.0703 11.7861C10.0032 11.8141 9.9382 11.8472 9.87109 11.8779C9.7426 11.9366 9.60869 11.9985 9.47461 12.0488C9.13065 12.1747 8.86203 12.3932 8.67188 12.6953C8.60493 12.7988 8.61315 12.9556 8.61035 13.0869C8.60759 13.2181 8.61511 13.307 8.43359 13.335C8.26895 13.3603 8.17953 13.517 8.1543 13.6846C8.12914 13.8299 8.16809 13.9538 8.31055 14.0293C8.34969 14.0489 8.3893 14.0796 8.42285 14.1104C8.56531 14.2361 8.56251 14.3342 8.40039 14.4404C8.22992 14.5551 8.13787 14.7175 8.12109 14.916C8.11556 14.9802 8.12096 15.0552 8.1543 15.1055C8.28285 15.2928 8.24673 15.472 8.16016 15.6621C8.1266 15.7264 8.11541 15.8023 8.09863 15.875C8.08187 15.9421 8.07296 16.009 8.04785 16.0732C8.0255 16.1291 8.00649 16.2047 8.03711 16.2578C8.03991 16.2662 8.07298 16.3051 8.08984 16.3193C8.69099 16.5011 9.33149 16.5996 9.99414 16.5996C13.6239 16.5996 16.5636 13.6597 16.5664 10.0293C16.5664 6.4045 13.6269 3.46193 10 3.46191Z" fill="#1C1C1E"/>
</svg>
