<svg width="30" height="30" viewBox="0 0 30 30" fill="none" xmlns="http://www.w3.org/2000/svg">
<path d="M6.33165 24H23.6582C25.8557 24 27 22.8614 27 20.6859V8.31407C27 6.13858 25.8557 5 23.6582 5H6.33165C4.1443 5 3 6.12841 3 8.31407V20.6859C3 22.8614 4.1443 24 6.33165 24ZM6.46329 21.977C5.53165 21.977 5.01519 21.489 5.01519 20.5029V8.49706C5.01519 7.51097 5.53165 7.02301 6.46329 7.02301H23.5266C24.4582 7.02301 24.9747 7.51097 24.9747 8.49706V20.5029C24.9747 21.489 24.4582 21.977 23.5266 21.977H21.5722C20.681 19.5982 18.0987 17.9411 15 17.9411C11.9013 17.9411 9.30886 19.5982 8.42785 21.977H6.46329ZM15 16.3146C16.9342 16.3248 18.4532 14.6779 18.4532 12.5227C18.4532 10.4997 16.9241 8.80203 15 8.80203C13.0658 8.80203 11.5367 10.4997 11.5468 12.5227C11.557 14.6779 13.0557 16.2943 15 16.3146Z" fill="#1C1C1E"/>
</svg>
