<svg width="20" height="20" viewBox="0 0 20 20" fill="none" xmlns="http://www.w3.org/2000/svg">
<path d="M13.4528 16.2067V11.5799C14.495 10.6382 15.1541 9.26964 15.1541 7.75038C15.1604 4.88766 12.8439 2.57739 9.99998 2.57739C7.15609 2.57739 4.84583 4.88766 4.84583 7.75038C4.84583 9.30102 5.53012 10.701 6.61619 11.6427V16.2067C6.61619 16.6462 6.87359 16.8408 7.19376 16.8408C7.4386 16.8408 7.62066 16.7152 7.80899 16.5269L9.79281 14.5556C9.88698 14.4615 9.96232 14.4301 10.0377 14.4301C10.1067 14.4301 10.182 14.4615 10.2762 14.5556L12.26 16.5269C12.4546 16.7215 12.643 16.8408 12.8815 16.8408C13.2017 16.8408 13.4528 16.6462 13.4528 16.2067ZM10.0063 11.6741C7.82155 11.6678 6.11396 9.92254 6.11396 7.75038C6.11396 5.57195 7.82155 3.82669 10.0063 3.82669C12.1847 3.82669 13.8923 5.57195 13.8986 7.75038C13.9048 9.92254 12.1847 11.6741 10.0063 11.6741Z" fill="#1C1C1E"/>
</svg>
