<svg width="20" height="20" viewBox="0 0 20 20" fill="none" xmlns="http://www.w3.org/2000/svg">
<path d="M0.978603 15.648H4.94624C4.92113 15.805 4.90857 15.9619 4.90857 16.1126C4.90857 17.2238 5.53636 17.9834 6.77938 17.9834C8.17936 17.9834 9.31566 17.0982 10.0753 15.648H19.0276C19.3289 15.648 19.5737 15.3906 19.5737 15.0893C19.5737 14.788 19.3289 14.5368 19.0276 14.5368H10.5524C10.8977 13.5135 11.1049 12.3145 11.1488 11.0024C11.5506 10.9208 11.9587 10.8706 12.3856 10.8706C12.5739 10.8706 12.6869 10.9584 12.6869 11.0966C12.6869 11.6176 12.3793 12.0382 12.3793 12.6033C12.3793 13.1118 12.7559 13.4257 13.2582 13.4257C14.564 13.4257 16.1335 11.2786 16.6043 11.2786C17.0312 11.2786 16.5415 13.1934 18.1298 13.1934C18.4061 13.1934 18.7576 13.1243 19.0213 12.9423C19.1971 12.8293 19.3164 12.6535 19.3164 12.4338C19.3164 12.1575 19.128 11.919 18.8392 11.919C18.6258 11.919 18.4437 12.0822 18.2491 12.0822C17.6402 12.0822 18.2303 10.023 16.9182 10.023C15.8007 10.023 14.1622 12.0508 13.7541 12.0508C13.7039 12.0508 13.6662 12.0194 13.6662 11.9504C13.6662 11.7432 13.8922 11.3163 13.8922 10.8831C13.8922 10.1925 13.3523 9.76564 12.4923 9.76564C12.0277 9.76564 11.582 9.80959 11.1425 9.8912C10.973 6.54508 9.35332 3.97742 6.95517 3.97742C5.26013 3.97742 4.00455 5.35856 4.00455 7.17915C4.00455 9.25713 5.34802 11.0149 6.93005 12.1764C6.18298 12.9109 5.61797 13.7396 5.27269 14.5368H0.978603C0.670986 14.5368 0.426147 14.788 0.426147 15.0893C0.426147 15.3906 0.677264 15.648 0.978603 15.648ZM5.10946 7.17287C5.10946 5.98635 5.90048 5.08861 6.95517 5.08861C8.75692 5.08861 9.96856 7.34237 10.0439 10.1925C9.19638 10.4939 8.41792 10.9396 7.7399 11.4607C6.47804 10.5567 5.10946 9.08763 5.10946 7.17287ZM0.740043 13.2185C0.922102 13.4005 1.19833 13.3943 1.37411 13.2185L2.13374 12.4651L2.88709 13.2185C3.06914 13.4005 3.33909 13.4005 3.52115 13.2185C3.70321 13.0427 3.70321 12.7602 3.52115 12.5844L2.7678 11.8311L3.52115 11.0777C3.70321 10.9019 3.70321 10.6257 3.52115 10.4437C3.34537 10.2616 3.06914 10.2679 2.88709 10.4437L2.13374 11.197L1.37411 10.4437C1.19205 10.2679 0.922102 10.2679 0.740043 10.4437C0.557983 10.6257 0.557983 10.9082 0.740043 11.084L1.49339 11.8311L0.740043 12.5844C0.557983 12.7665 0.557983 13.0364 0.740043 13.2185ZM8.34258 13.0239C8.43675 13.0741 8.53092 13.0929 8.62509 13.0929C8.91387 13.0929 9.1336 12.8732 9.1336 12.6095C9.1336 12.4338 9.05198 12.2642 8.84481 12.145C8.80087 12.1261 8.7632 12.101 8.71926 12.0822C9.12104 11.7997 9.55422 11.5548 10.0251 11.3602C9.94345 12.5593 9.71116 13.6454 9.3596 14.5368H6.48432C6.79194 13.953 7.26278 13.3315 7.85918 12.7728C8.02241 12.8606 8.17936 12.9485 8.34258 13.0239ZM6.05743 15.9494C6.05743 15.8552 6.06998 15.7548 6.08254 15.648H8.78831C8.26725 16.4202 7.6269 16.8785 6.90494 16.8785C6.33365 16.8785 6.05743 16.5018 6.05743 15.9494Z" fill="#1C1C1E"/>
</svg>
